<?xml version="1.0" encoding="UTF-8"?>
<svg xmlns="http://www.w3.org/2000/svg" version="1.1" width="1000" height="1000" viewBox="0 0 1000 1000"><rect x="0" y="0" width="1000" height="1000" fill="#ffffff"/><g transform="scale(34.483)"><g transform="translate(0,0)"><g><g transform="translate(3.5,3.5)"><path fill-rule="evenodd" d="M-3.5 0C-3.5 -3.5 -3.5 -3.5 0 -3.5M-3.5 0C-3.5 3.5 -3.5 3.5 0 3.5M0 3.5C3.5 3.5 3.5 3.5 3.5 0M3.5 0C3.5 -3.5 3.5 -3.5 0 -3.5M3.5 0A0 0 0 0 1 0 3.5A0 0 0 0 1 -3.5 0A0 0 0 0 1 0 -3.5A0 0 0 0 1 3.5 0ZM-2.5 0C-2.5 -2.5 -2.5 -2.5 0 -2.5M-2.5 0C-2.5 2.5 -2.5 2.5 0 2.5M0 2.5C2.5 2.5 2.5 2.5 2.5 0M2.5 0C2.5 -2.5 2.5 -2.5 0 -2.5M2.5 0A0 0 0 0 1 0 2.5A0 0 0 0 1 -2.5 0A0 0 0 0 1 0 -2.5A0 0 0 0 1 2.5 0Z" fill="#000000"/><path fill-rule="evenodd" d="M-1.5 0C-1.5 -1.5 -1.5 -1.5 0 -1.5M-1.5 0C-1.5 1.5 -1.5 1.5 0 1.5M0 1.5C1.5 1.5 1.5 1.5 1.5 0M1.5 0C1.5 -1.5 1.5 -1.5 0 -1.5M1.5 0A0 0 0 0 1 0 1.5A0 0 0 0 1 -1.5 0A0 0 0 0 1 0 -1.5A0 0 0 0 1 1.5 0Z" fill="#000000"/></g></g><g><g transform="translate(25.5,3.5)"><g transform="rotate(90)"><path fill-rule="evenodd" d="M-3.5 0C-3.5 -3.5 -3.5 -3.5 0 -3.5M-3.5 0C-3.5 3.5 -3.5 3.5 0 3.5M0 3.5C3.5 3.5 3.5 3.5 3.5 0M3.5 0C3.5 -3.5 3.5 -3.5 0 -3.5M3.5 0A0 0 0 0 1 0 3.5A0 0 0 0 1 -3.5 0A0 0 0 0 1 0 -3.5A0 0 0 0 1 3.5 0ZM-2.5 0C-2.5 -2.5 -2.5 -2.5 0 -2.5M-2.5 0C-2.5 2.5 -2.5 2.5 0 2.5M0 2.5C2.5 2.5 2.5 2.5 2.5 0M2.5 0C2.5 -2.5 2.5 -2.5 0 -2.5M2.5 0A0 0 0 0 1 0 2.5A0 0 0 0 1 -2.5 0A0 0 0 0 1 0 -2.5A0 0 0 0 1 2.5 0Z" fill="#000000"/><path fill-rule="evenodd" d="M-1.5 0C-1.5 -1.5 -1.5 -1.5 0 -1.5M-1.5 0C-1.5 1.5 -1.5 1.5 0 1.5M0 1.5C1.5 1.5 1.5 1.5 1.5 0M1.5 0C1.5 -1.5 1.5 -1.5 0 -1.5M1.5 0A0 0 0 0 1 0 1.5A0 0 0 0 1 -1.5 0A0 0 0 0 1 0 -1.5A0 0 0 0 1 1.5 0Z" fill="#000000"/></g></g></g><g><g transform="translate(3.5,25.5)"><g transform="rotate(-90)"><path fill-rule="evenodd" d="M-3.5 0C-3.5 -3.5 -3.5 -3.5 0 -3.5M-3.5 0C-3.5 3.5 -3.5 3.5 0 3.5M0 3.5C3.5 3.5 3.5 3.5 3.5 0M3.5 0C3.5 -3.5 3.5 -3.5 0 -3.5M3.5 0A0 0 0 0 1 0 3.5A0 0 0 0 1 -3.5 0A0 0 0 0 1 0 -3.5A0 0 0 0 1 3.5 0ZM-2.5 0C-2.5 -2.5 -2.5 -2.5 0 -2.5M-2.5 0C-2.5 2.5 -2.5 2.5 0 2.5M0 2.5C2.5 2.5 2.5 2.5 2.5 0M2.5 0C2.5 -2.5 2.5 -2.5 0 -2.5M2.5 0A0 0 0 0 1 0 2.5A0 0 0 0 1 -2.5 0A0 0 0 0 1 0 -2.5A0 0 0 0 1 2.5 0Z" fill="#000000"/><path fill-rule="evenodd" d="M-1.5 0C-1.5 -1.5 -1.5 -1.5 0 -1.5M-1.5 0C-1.5 1.5 -1.5 1.5 0 1.5M0 1.5C1.5 1.5 1.5 1.5 1.5 0M1.5 0C1.5 -1.5 1.5 -1.5 0 -1.5M1.5 0A0 0 0 0 1 0 1.5A0 0 0 0 1 -1.5 0A0 0 0 0 1 0 -1.5A0 0 0 0 1 1.5 0Z" fill="#000000"/></g></g></g><path fill-rule="evenodd" d="M10 0.25L10 0.75A0.25 0.25 0 0 1 9.75 1L9.25 1A0.25 0.25 0 0 0 9 1.25L9 1.75A0.25 0.25 0 0 1 8.75 2L8.25 2A0.25 0.25 0 0 0 8 2.25L8 7.75A0.25 0.25 0 0 0 8.25 8L8.75 8A0.25 0.25 0 0 1 9 8.25L9 8.75A0.25 0.25 0 0 1 8.75 9L7.25 9A0.25 0.25 0 0 1 7 8.75L7 8.25A0.25 0.25 0 0 0 6.75 8L2.25 8A0.25 0.25 0 0 0 2 8.25L2 8.75A0.25 0.25 0 0 1 1.75 9L1.25 9A0.25 0.25 0 0 1 1 8.75L1 8.25A0.25 0.25 0 0 0 0.75 8L0.25 8A0.25 0.25 0 0 0 0 8.25L0 8.75A0.25 0.25 0 0 0 0.25 9L0.75 9A0.25 0.25 0 0 1 1 9.25L1 9.75A0.25 0.25 0 0 1 0.75 10L0.25 10A0.25 0.25 0 0 0 0 10.25L0 11.75A0.25 0.25 0 0 0 0.25 12L0.75 12A0.25 0.25 0 0 1 1 12.25L1 13.75A0.25 0.25 0 0 0 1.25 14L1.75 14A0.25 0.25 0 0 1 2 14.25L2 15.75A0.25 0.25 0 0 1 1.75 16L1.25 16A0.25 0.25 0 0 0 1 16.25L1 16.75A0.25 0.25 0 0 1 0.75 17L0.25 17A0.25 0.25 0 0 0 0 17.25L0 20.75A0.25 0.25 0 0 0 0.25 21L0.75 21A0.25 0.25 0 0 0 1 20.75L1 18.25A0.25 0.25 0 0 1 1.25 18L1.75 18A0.25 0.25 0 0 1 2 18.25L2 19.75A0.25 0.25 0 0 0 2.25 20L2.75 20A0.25 0.25 0 0 0 3 19.75L3 18.25A0.25 0.25 0 0 1 3.25 18L3.75 18A0.25 0.25 0 0 0 4 17.75L4 17.25A0.25 0.25 0 0 1 4.25 17L6.75 17A0.25 0.25 0 0 1 7 17.25L7 17.75A0.25 0.25 0 0 1 6.75 18L5.25 18A0.25 0.25 0 0 0 5 18.25L5 18.75A0.25 0.25 0 0 1 4.75 19L4.25 19A0.25 0.25 0 0 0 4 19.25L4 19.75A0.25 0.25 0 0 0 4.25 20L4.75 20A0.25 0.25 0 0 0 5 19.75L5 19.25A0.25 0.25 0 0 1 5.25 19L6.75 19A0.25 0.25 0 0 0 7 18.75L7 18.25A0.25 0.25 0 0 1 7.25 18L7.75 18A0.25 0.25 0 0 1 8 18.25L8 18.75A0.25 0.25 0 0 0 8.25 19L9.75 19A0.25 0.25 0 0 1 10 19.25L10 19.75A0.25 0.25 0 0 1 9.75 20L9.25 20A0.25 0.25 0 0 0 9 20.25L9 20.75A0.25 0.25 0 0 1 8.75 21L8.25 21A0.25 0.25 0 0 1 8 20.75L8 20.25A0.25 0.25 0 0 0 7.75 20L6.25 20A0.25 0.25 0 0 0 6 20.25L6 20.75A0.25 0.25 0 0 0 6.25 21L7.75 21A0.25 0.25 0 0 1 8 21.25L8 21.75A0.25 0.25 0 0 0 8.25 22L8.75 22A0.25 0.25 0 0 1 9 22.25L9 22.75A0.25 0.25 0 0 1 8.75 23L8.25 23A0.25 0.25 0 0 0 8 23.25L8 26.75A0.25 0.25 0 0 0 8.25 27L8.75 27A0.25 0.25 0 0 0 9 26.75L9 26.25A0.25 0.25 0 0 1 9.25 26L9.75 26A0.25 0.25 0 0 1 10 26.25L10 26.75A0.25 0.25 0 0 0 10.25 27L10.75 27A0.25 0.25 0 0 1 11 27.25L11 27.75A0.25 0.25 0 0 1 10.75 28L8.25 28A0.25 0.25 0 0 0 8 28.25L8 28.75A0.25 0.25 0 0 0 8.25 29L10.75 29A0.25 0.25 0 0 0 11 28.75L11 28.25A0.25 0.25 0 0 1 11.25 28L11.75 28A0.25 0.25 0 0 0 12 27.75L12 25.25A0.25 0.25 0 0 1 12.25 25L12.75 25A0.25 0.25 0 0 0 13 24.75L13 22.25A0.25 0.25 0 0 0 12.75 22L10.25 22A0.25 0.25 0 0 1 10 21.75L10 21.25A0.25 0.25 0 0 1 10.25 21L10.75 21A0.25 0.25 0 0 0 11 20.75L11 20.25A0.25 0.25 0 0 1 11.25 20L11.75 20A0.25 0.25 0 0 1 12 20.25L12 20.75A0.25 0.25 0 0 0 12.25 21L12.75 21A0.25 0.25 0 0 0 13 20.75L13 20.25A0.25 0.25 0 0 1 13.25 20L13.75 20A0.25 0.25 0 0 1 14 20.25L14 20.75A0.25 0.25 0 0 0 14.25 21L14.75 21A0.25 0.25 0 0 1 15 21.25L15 21.75A0.25 0.25 0 0 0 15.25 22L16.75 22A0.25 0.25 0 0 1 17 22.25L17 22.75A0.25 0.25 0 0 1 16.75 23L16.25 23A0.25 0.25 0 0 0 16 23.25L16 23.75A0.25 0.25 0 0 0 16.25 24L16.75 24A0.25 0.25 0 0 0 17 23.75L17 23.25A0.25 0.25 0 0 1 17.25 23L18.75 23A0.25 0.25 0 0 1 19 23.25L19 23.75A0.25 0.25 0 0 1 18.75 24L18.25 24A0.25 0.25 0 0 0 18 24.25L18 25.75A0.25 0.25 0 0 1 17.75 26L17.25 26A0.25 0.25 0 0 0 17 26.25L17 26.75A0.25 0.25 0 0 0 17.25 27L17.75 27A0.25 0.25 0 0 1 18 27.25L18 28.75A0.25 0.25 0 0 0 18.25 29L18.75 29A0.25 0.25 0 0 0 19 28.75L19 27.25A0.25 0.25 0 0 1 19.25 27L19.75 27A0.25 0.25 0 0 0 20 26.75L20 26.25A0.25 0.25 0 0 1 20.25 26L21.75 26A0.25 0.25 0 0 1 22 26.25L22 26.75A0.25 0.25 0 0 0 22.25 27L23.75 27A0.25 0.25 0 0 0 24 26.75L24 25.25A0.25 0.25 0 0 1 24.25 25L24.75 25A0.25 0.25 0 0 0 25 24.75L25 23.25A0.25 0.25 0 0 1 25.25 23L25.75 23A0.25 0.25 0 0 1 26 23.25L26 24.75A0.25 0.25 0 0 0 26.25 25L28.75 25A0.25 0.25 0 0 0 29 24.75L29 23.25A0.25 0.25 0 0 0 28.75 23L27.25 23A0.25 0.25 0 0 1 27 22.75L27 22.25A0.25 0.25 0 0 1 27.25 22L27.75 22A0.25 0.25 0 0 0 28 21.75L28 20.25A0.25 0.25 0 0 0 27.75 20L25.25 20A0.25 0.25 0 0 1 25 19.75L25 19.25A0.25 0.25 0 0 1 25.25 19L26.75 19A0.25 0.25 0 0 0 27 18.75L27 18.25A0.25 0.25 0 0 1 27.25 18L27.75 18A0.25 0.25 0 0 1 28 18.25L28 18.75A0.25 0.25 0 0 0 28.25 19L28.75 19A0.25 0.25 0 0 0 29 18.75L29 18.25A0.25 0.25 0 0 0 28.75 18L28.25 18A0.25 0.25 0 0 1 28 17.75L28 17.25A0.25 0.25 0 0 0 27.75 17L27.25 17A0.25 0.25 0 0 0 27 17.25L27 17.75A0.25 0.25 0 0 1 26.75 18L26.25 18A0.25 0.25 0 0 1 26 17.75L26 17.25A0.25 0.25 0 0 0 25.75 17L24.25 17A0.25 0.25 0 0 1 24 16.75L24 16.25A0.25 0.25 0 0 1 24.25 16L24.75 16A0.25 0.25 0 0 0 25 15.75L25 15.25A0.25 0.25 0 0 1 25.25 15L26.75 15A0.25 0.25 0 0 1 27 15.25L27 15.75A0.25 0.25 0 0 0 27.25 16L28.75 16A0.25 0.25 0 0 0 29 15.75L29 14.25A0.25 0.25 0 0 0 28.75 14L28.25 14A0.25 0.25 0 0 1 28 13.75L28 13.25A0.25 0.25 0 0 0 27.75 13L27.25 13A0.25 0.25 0 0 0 27 13.25L27 13.75A0.25 0.25 0 0 1 26.75 14L26.25 14A0.25 0.25 0 0 1 26 13.75L26 13.25A0.25 0.25 0 0 0 25.75 13L25.25 13A0.25 0.25 0 0 0 25 13.25L25 14.75A0.25 0.25 0 0 1 24.75 15L21.25 15A0.25 0.25 0 0 0 21 15.25L21 16.75A0.25 0.25 0 0 0 21.25 17L21.75 17A0.25 0.25 0 0 0 22 16.75L22 16.25A0.25 0.25 0 0 1 22.25 16L22.75 16A0.25 0.25 0 0 1 23 16.25L23 16.75A0.25 0.25 0 0 0 23.25 17L23.75 17A0.25 0.25 0 0 1 24 17.25L24 17.75A0.25 0.25 0 0 0 24.25 18L24.75 18A0.25 0.25 0 0 1 25 18.25L25 18.75A0.25 0.25 0 0 1 24.75 19L22.25 19A0.25 0.25 0 0 0 22 19.25L22 19.75A0.25 0.25 0 0 1 21.75 20L21.25 20A0.25 0.25 0 0 1 21 19.75L21 19.25A0.25 0.25 0 0 0 20.75 19L19.25 19A0.25 0.25 0 0 1 19 18.75L19 18.25A0.25 0.25 0 0 1 19.25 18L19.75 18A0.25 0.25 0 0 0 20 17.75L20 17.25A0.25 0.25 0 0 0 19.75 17L19.25 17A0.25 0.25 0 0 1 19 16.75L19 16.25A0.25 0.25 0 0 1 19.25 16L19.75 16A0.25 0.25 0 0 0 20 15.75L20 14.25A0.25 0.25 0 0 1 20.25 14L21.75 14A0.25 0.25 0 0 0 22 13.75L22 12.25A0.25 0.25 0 0 1 22.25 12L22.75 12A0.25 0.25 0 0 1 23 12.25L23 13.75A0.25 0.25 0 0 0 23.25 14L23.75 14A0.25 0.25 0 0 0 24 13.75L24 12.25A0.25 0.25 0 0 1 24.25 12L25.75 12A0.25 0.25 0 0 0 26 11.75L26 11.25A0.25 0.25 0 0 1 26.25 11L26.75 11A0.25 0.25 0 0 0 27 10.75L27 10.25A0.25 0.25 0 0 1 27.25 10L27.75 10A0.25 0.25 0 0 0 28 9.75L28 9.25A0.25 0.25 0 0 0 27.75 9L27.25 9A0.25 0.25 0 0 1 27 8.75L27 8.25A0.25 0.25 0 0 0 26.75 8L22.25 8A0.25 0.25 0 0 0 22 8.25L22 8.75A0.25 0.25 0 0 0 22.25 9L22.75 9A0.25 0.25 0 0 1 23 9.25L23 9.75A0.25 0.25 0 0 0 23.25 10L23.75 10A0.25 0.25 0 0 0 24 9.75L24 9.25A0.25 0.25 0 0 1 24.25 9L24.75 9A0.25 0.25 0 0 1 25 9.25L25 10.75A0.25 0.25 0 0 1 24.75 11L22.25 11A0.25 0.25 0 0 0 22 11.25L22 11.75A0.25 0.25 0 0 1 21.75 12L21.25 12A0.25 0.25 0 0 1 21 11.75L21 11.25A0.25 0.25 0 0 0 20.75 11L18.25 11A0.25 0.25 0 0 1 18 10.75L18 10.25A0.25 0.25 0 0 0 17.75 10L16.25 10A0.25 0.25 0 0 1 16 9.75L16 9.25A0.25 0.25 0 0 1 16.25 9L16.75 9A0.25 0.25 0 0 0 17 8.75L17 8.25A0.25 0.25 0 0 1 17.25 8L17.75 8A0.25 0.25 0 0 1 18 8.25L18 8.75A0.25 0.25 0 0 0 18.25 9L18.75 9A0.25 0.25 0 0 1 19 9.25L19 9.75A0.25 0.25 0 0 0 19.25 10L19.75 10A0.25 0.25 0 0 0 20 9.75L20 9.25A0.25 0.25 0 0 1 20.25 9L20.75 9A0.25 0.25 0 0 0 21 8.75L21 6.25A0.25 0.25 0 0 0 20.75 6L20.25 6A0.25 0.25 0 0 1 20 5.75L20 5.25A0.25 0.25 0 0 1 20.25 5L20.75 5A0.25 0.25 0 0 0 21 4.75L21 2.25A0.25 0.25 0 0 0 20.75 2L20.25 2A0.25 0.25 0 0 1 20 1.75L20 1.25A0.25 0.25 0 0 1 20.25 1L20.75 1A0.25 0.25 0 0 0 21 0.75L21 0.25A0.25 0.25 0 0 0 20.75 0L20.25 0A0.25 0.25 0 0 0 20 0.25L20 0.75A0.25 0.25 0 0 1 19.75 1L16.25 1A0.25 0.25 0 0 1 16 0.75L16 0.25A0.25 0.25 0 0 0 15.75 0L10.25 0A0.25 0.25 0 0 0 10 0.25ZM10 2.25L10 2.75A0.25 0.25 0 0 0 10.25 3L10.75 3A0.25 0.25 0 0 1 11 3.25L11 3.75A0.25 0.25 0 0 1 10.75 4L9.25 4A0.25 0.25 0 0 0 9 4.25L9 4.75A0.25 0.25 0 0 0 9.25 5L11.75 5A0.25 0.25 0 0 1 12 5.25L12 5.75A0.25 0.25 0 0 1 11.75 6L11.25 6A0.25 0.25 0 0 0 11 6.25L11 6.75A0.25 0.25 0 0 0 11.25 7L11.75 7A0.25 0.25 0 0 1 12 7.25L12 7.75A0.25 0.25 0 0 1 11.75 8L11.25 8A0.25 0.25 0 0 0 11 8.25L11 8.75A0.25 0.25 0 0 0 11.25 9L15.75 9A0.25 0.25 0 0 0 16 8.75L16 6.25A0.25 0.25 0 0 1 16.25 6L16.75 6A0.25 0.25 0 0 1 17 6.25L17 6.75A0.25 0.25 0 0 0 17.25 7L17.75 7A0.25 0.25 0 0 1 18 7.25L18 7.75A0.25 0.25 0 0 0 18.25 8L18.75 8A0.25 0.25 0 0 1 19 8.25L19 8.75A0.25 0.25 0 0 0 19.25 9L19.75 9A0.25 0.25 0 0 0 20 8.75L20 8.25A0.25 0.25 0 0 0 19.75 8L19.25 8A0.25 0.25 0 0 1 19 7.75L19 7.25A0.25 0.25 0 0 1 19.25 7L19.75 7A0.25 0.25 0 0 0 20 6.75L20 6.25A0.25 0.25 0 0 0 19.75 6L19.25 6A0.25 0.25 0 0 0 19 6.25L19 6.75A0.25 0.25 0 0 1 18.75 7L18.25 7A0.25 0.25 0 0 1 18 6.75L18 6.25A0.25 0.25 0 0 0 17.75 6L17.25 6A0.25 0.25 0 0 1 17 5.75L17 5.25A0.25 0.25 0 0 1 17.25 5L18.75 5A0.25 0.25 0 0 0 19 4.75L19 4.25A0.25 0.25 0 0 1 19.25 4L19.75 4A0.25 0.25 0 0 0 20 3.75L20 3.25A0.25 0.25 0 0 0 19.75 3L18.25 3A0.25 0.25 0 0 0 18 3.25L18 3.75A0.25 0.25 0 0 1 17.75 4L17.25 4A0.25 0.25 0 0 1 17 3.75L17 2.25A0.25 0.25 0 0 0 16.75 2L16.25 2A0.25 0.25 0 0 0 16 2.25L16 3.75A0.25 0.25 0 0 0 16.25 4L16.75 4A0.25 0.25 0 0 1 17 4.25L17 4.75A0.25 0.25 0 0 1 16.75 5L15.25 5A0.25 0.25 0 0 1 15 4.75L15 4.25A0.25 0.25 0 0 0 14.75 4L14.25 4A0.25 0.25 0 0 1 14 3.75L14 3.25A0.25 0.25 0 0 1 14.25 3L14.75 3A0.25 0.25 0 0 0 15 2.75L15 2.25A0.25 0.25 0 0 0 14.75 2L14.25 2A0.25 0.25 0 0 0 14 2.25L14 2.75A0.25 0.25 0 0 1 13.75 3L13.25 3A0.25 0.25 0 0 1 13 2.75L13 2.25A0.25 0.25 0 0 0 12.75 2L10.25 2A0.25 0.25 0 0 0 10 2.25ZM12 3.25L12 3.75A0.25 0.25 0 0 0 12.25 4L12.75 4A0.25 0.25 0 0 0 13 3.75L13 3.25A0.25 0.25 0 0 0 12.75 3L12.25 3A0.25 0.25 0 0 0 12 3.25ZM9 6.25L9 7.75A0.25 0.25 0 0 0 9.25 8L9.75 8A0.25 0.25 0 0 0 10 7.75L10 6.25A0.25 0.25 0 0 0 9.75 6L9.25 6A0.25 0.25 0 0 0 9 6.25ZM12 6.25L12 6.75A0.25 0.25 0 0 0 12.25 7L12.75 7A0.25 0.25 0 0 0 13 6.75L13 6.25A0.25 0.25 0 0 0 12.75 6L12.25 6A0.25 0.25 0 0 0 12 6.25ZM14 6.25L14 7.75A0.25 0.25 0 0 0 14.25 8L14.75 8A0.25 0.25 0 0 0 15 7.75L15 6.25A0.25 0.25 0 0 0 14.75 6L14.25 6A0.25 0.25 0 0 0 14 6.25ZM2 9.25L2 9.75A0.25 0.25 0 0 1 1.75 10L1.25 10A0.25 0.25 0 0 0 1 10.25L1 11.75A0.25 0.25 0 0 0 1.25 12L1.75 12A0.25 0.25 0 0 1 2 12.25L2 13.75A0.25 0.25 0 0 0 2.25 14L2.75 14A0.25 0.25 0 0 0 3 13.75L3 12.25A0.25 0.25 0 0 1 3.25 12L3.75 12A0.25 0.25 0 0 1 4 12.25L4 13.75A0.25 0.25 0 0 0 4.25 14L4.75 14A0.25 0.25 0 0 0 5 13.75L5 13.25A0.25 0.25 0 0 1 5.25 13L5.75 13A0.25 0.25 0 0 1 6 13.25L6 13.75A0.25 0.25 0 0 0 6.25 14L6.75 14A0.25 0.25 0 0 1 7 14.25L7 14.75A0.25 0.25 0 0 1 6.75 15L3.25 15A0.25 0.25 0 0 0 3 15.25L3 15.75A0.25 0.25 0 0 1 2.75 16L2.25 16A0.25 0.25 0 0 0 2 16.25L2 17.75A0.25 0.25 0 0 0 2.25 18L2.75 18A0.25 0.25 0 0 0 3 17.75L3 16.25A0.25 0.25 0 0 1 3.25 16L7.75 16A0.25 0.25 0 0 1 8 16.25L8 16.75A0.25 0.25 0 0 0 8.25 17L8.75 17A0.25 0.25 0 0 1 9 17.25L9 17.75A0.25 0.25 0 0 0 9.25 18L9.75 18A0.25 0.25 0 0 0 10 17.75L10 16.25A0.25 0.25 0 0 1 10.25 16L10.75 16A0.25 0.25 0 0 1 11 16.25L11 16.75A0.25 0.25 0 0 0 11.25 17L15.75 17A0.25 0.25 0 0 1 16 17.25L16 17.75A0.25 0.25 0 0 0 16.25 18L17.75 18A0.25 0.25 0 0 0 18 17.75L18 16.25A0.25 0.25 0 0 1 18.25 16L18.75 16A0.25 0.25 0 0 0 19 15.75L19 15.25A0.25 0.25 0 0 0 18.75 15L17.25 15A0.25 0.25 0 0 1 17 14.75L17 14.25A0.25 0.25 0 0 1 17.25 14L18.75 14A0.25 0.25 0 0 0 19 13.75L19 13.25A0.25 0.25 0 0 1 19.25 13L20.75 13A0.25 0.25 0 0 0 21 12.75L21 12.25A0.25 0.25 0 0 0 20.75 12L19.25 12A0.25 0.25 0 0 0 19 12.25L19 12.75A0.25 0.25 0 0 1 18.75 13L17.25 13A0.25 0.25 0 0 1 17 12.75L17 12.25A0.25 0.25 0 0 1 17.25 12L17.75 12A0.25 0.25 0 0 0 18 11.75L18 11.25A0.25 0.25 0 0 0 17.75 11L16.25 11A0.25 0.25 0 0 0 16 11.25L16 12.75A0.25 0.25 0 0 0 16.25 13L16.75 13A0.25 0.25 0 0 1 17 13.25L17 13.75A0.25 0.25 0 0 1 16.75 14L15.25 14A0.25 0.25 0 0 1 15 13.75L15 13.25A0.25 0.25 0 0 0 14.75 13L14.25 13A0.25 0.25 0 0 1 14 12.75L14 12.25A0.25 0.25 0 0 1 14.25 12L14.75 12A0.25 0.25 0 0 0 15 11.75L15 11.25A0.25 0.25 0 0 0 14.75 11L14.25 11A0.25 0.25 0 0 0 14 11.25L14 11.75A0.25 0.25 0 0 1 13.75 12L13.25 12A0.25 0.25 0 0 1 13 11.75L13 10.25A0.25 0.25 0 0 0 12.75 10L12.25 10A0.25 0.25 0 0 0 12 10.25L12 10.75A0.25 0.25 0 0 1 11.75 11L11.25 11A0.25 0.25 0 0 0 11 11.25L11 11.75A0.25 0.25 0 0 0 11.25 12L11.75 12A0.25 0.25 0 0 1 12 12.25L12 12.75A0.25 0.25 0 0 0 12.25 13L12.75 13A0.25 0.25 0 0 1 13 13.25L13 13.75A0.25 0.25 0 0 1 12.75 14L12.25 14A0.25 0.25 0 0 0 12 14.25L12 15.75A0.25 0.25 0 0 1 11.75 16L11.25 16A0.25 0.25 0 0 1 11 15.75L11 14.25A0.25 0.25 0 0 0 10.75 14L8.25 14A0.25 0.25 0 0 1 8 13.75L8 13.25A0.25 0.25 0 0 1 8.25 13L8.75 13A0.25 0.25 0 0 0 9 12.75L9 12.25A0.25 0.25 0 0 0 8.75 12L8.25 12A0.25 0.25 0 0 0 8 12.25L8 12.75A0.25 0.25 0 0 1 7.75 13L6.25 13A0.25 0.25 0 0 1 6 12.75L6 12.25A0.25 0.25 0 0 1 6.25 12L6.75 12A0.25 0.25 0 0 0 7 11.75L7 11.25A0.25 0.25 0 0 1 7.25 11L8.75 11A0.25 0.25 0 0 0 9 10.75L9 10.25A0.25 0.25 0 0 1 9.25 10L9.75 10A0.25 0.25 0 0 0 10 9.75L10 9.25A0.25 0.25 0 0 0 9.75 9L9.25 9A0.25 0.25 0 0 0 9 9.25L9 9.75A0.25 0.25 0 0 1 8.75 10L7.25 10A0.25 0.25 0 0 1 7 9.75L7 9.25A0.25 0.25 0 0 0 6.75 9L6.25 9A0.25 0.25 0 0 0 6 9.25L6 9.75A0.25 0.25 0 0 1 5.75 10L5.25 10A0.25 0.25 0 0 1 5 9.75L5 9.25A0.25 0.25 0 0 0 4.75 9L4.25 9A0.25 0.25 0 0 0 4 9.25L4 9.75A0.25 0.25 0 0 1 3.75 10L3.25 10A0.25 0.25 0 0 1 3 9.75L3 9.25A0.25 0.25 0 0 0 2.75 9L2.25 9A0.25 0.25 0 0 0 2 9.25ZM26 9.25L26 9.75A0.25 0.25 0 0 0 26.25 10L26.75 10A0.25 0.25 0 0 0 27 9.75L27 9.25A0.25 0.25 0 0 0 26.75 9L26.25 9A0.25 0.25 0 0 0 26 9.25ZM6 10.25L6 10.75A0.25 0.25 0 0 0 6.25 11L6.75 11A0.25 0.25 0 0 0 7 10.75L7 10.25A0.25 0.25 0 0 0 6.75 10L6.25 10A0.25 0.25 0 0 0 6 10.25ZM2 11.25L2 11.75A0.25 0.25 0 0 0 2.25 12L2.75 12A0.25 0.25 0 0 0 3 11.75L3 11.25A0.25 0.25 0 0 0 2.75 11L2.25 11A0.25 0.25 0 0 0 2 11.25ZM4 11.25L4 11.75A0.25 0.25 0 0 0 4.25 12L4.75 12A0.25 0.25 0 0 0 5 11.75L5 11.25A0.25 0.25 0 0 0 4.75 11L4.25 11A0.25 0.25 0 0 0 4 11.25ZM28 11.25L28 11.75A0.25 0.25 0 0 0 28.25 12L28.75 12A0.25 0.25 0 0 0 29 11.75L29 11.25A0.25 0.25 0 0 0 28.75 11L28.25 11A0.25 0.25 0 0 0 28 11.25ZM14 15.25L14 15.75A0.25 0.25 0 0 0 14.25 16L14.75 16A0.25 0.25 0 0 0 15 15.75L15 15.25A0.25 0.25 0 0 0 14.75 15L14.25 15A0.25 0.25 0 0 0 14 15.25ZM16 15.25L16 16.75A0.25 0.25 0 0 0 16.25 17L16.75 17A0.25 0.25 0 0 0 17 16.75L17 15.25A0.25 0.25 0 0 0 16.75 15L16.25 15A0.25 0.25 0 0 0 16 15.25ZM11 18.25L11 18.75A0.25 0.25 0 0 0 11.25 19L11.75 19A0.25 0.25 0 0 1 12 19.25L12 19.75A0.25 0.25 0 0 0 12.25 20L12.75 20A0.25 0.25 0 0 0 13 19.75L13 18.25A0.25 0.25 0 0 0 12.75 18L11.25 18A0.25 0.25 0 0 0 11 18.25ZM14 19.25L14 19.75A0.25 0.25 0 0 0 14.25 20L14.75 20A0.25 0.25 0 0 0 15 19.75L15 19.25A0.25 0.25 0 0 0 14.75 19L14.25 19A0.25 0.25 0 0 0 14 19.25ZM16 19.25L16 20.75A0.25 0.25 0 0 0 16.25 21L16.75 21A0.25 0.25 0 0 1 17 21.25L17 21.75A0.25 0.25 0 0 0 17.25 22L18.75 22A0.25 0.25 0 0 1 19 22.25L19 22.75A0.25 0.25 0 0 0 19.25 23L19.75 23A0.25 0.25 0 0 0 20 22.75L20 22.25A0.25 0.25 0 0 0 19.75 22L19.25 22A0.25 0.25 0 0 1 19 21.75L19 21.25A0.25 0.25 0 0 1 19.25 21L19.75 21A0.25 0.25 0 0 0 20 20.75L20 20.25A0.25 0.25 0 0 0 19.75 20L19.25 20A0.25 0.25 0 0 1 19 19.75L19 19.25A0.25 0.25 0 0 0 18.75 19L18.25 19A0.25 0.25 0 0 0 18 19.25L18 19.75A0.25 0.25 0 0 1 17.75 20L17.25 20A0.25 0.25 0 0 1 17 19.75L17 19.25A0.25 0.25 0 0 0 16.75 19L16.25 19A0.25 0.25 0 0 0 16 19.25ZM18 20.25L18 20.75A0.25 0.25 0 0 0 18.25 21L18.75 21A0.25 0.25 0 0 0 19 20.75L19 20.25A0.25 0.25 0 0 0 18.75 20L18.25 20A0.25 0.25 0 0 0 18 20.25ZM21 21.25L21 23.75A0.25 0.25 0 0 0 21.25 24L23.75 24A0.25 0.25 0 0 0 24 23.75L24 21.25A0.25 0.25 0 0 0 23.75 21L21.25 21A0.25 0.25 0 0 0 21 21.25ZM25 21.25L25 21.75A0.25 0.25 0 0 0 25.25 22L26.75 22A0.25 0.25 0 0 0 27 21.75L27 21.25A0.25 0.25 0 0 0 26.75 21L25.25 21A0.25 0.25 0 0 0 25 21.25ZM22 22.25L22 22.75A0.25 0.25 0 0 0 22.25 23L22.75 23A0.25 0.25 0 0 0 23 22.75L23 22.25A0.25 0.25 0 0 0 22.75 22L22.25 22A0.25 0.25 0 0 0 22 22.25ZM9 23.25L9 24.75A0.25 0.25 0 0 0 9.25 25L9.75 25A0.25 0.25 0 0 1 10 25.25L10 25.75A0.25 0.25 0 0 0 10.25 26L10.75 26A0.25 0.25 0 0 0 11 25.75L11 25.25A0.25 0.25 0 0 0 10.75 25L10.25 25A0.25 0.25 0 0 1 10 24.75L10 24.25A0.25 0.25 0 0 1 10.25 24L10.75 24A0.25 0.25 0 0 0 11 23.75L11 23.25A0.25 0.25 0 0 0 10.75 23L9.25 23A0.25 0.25 0 0 0 9 23.25ZM14 23.25L14 23.75A0.25 0.25 0 0 0 14.25 24L14.75 24A0.25 0.25 0 0 0 15 23.75L15 23.25A0.25 0.25 0 0 0 14.75 23L14.25 23A0.25 0.25 0 0 0 14 23.25ZM19 24.25L19 24.75A0.25 0.25 0 0 0 19.25 25L19.75 25A0.25 0.25 0 0 0 20 24.75L20 24.25A0.25 0.25 0 0 0 19.75 24L19.25 24A0.25 0.25 0 0 0 19 24.25ZM14 25.25L14 25.75A0.25 0.25 0 0 1 13.75 26L13.25 26A0.25 0.25 0 0 0 13 26.25L13 26.75A0.25 0.25 0 0 0 13.25 27L13.75 27A0.25 0.25 0 0 1 14 27.25L14 27.75A0.25 0.25 0 0 1 13.75 28L13.25 28A0.25 0.25 0 0 0 13 28.25L13 28.75A0.25 0.25 0 0 0 13.25 29L16.75 29A0.25 0.25 0 0 0 17 28.75L17 28.25A0.25 0.25 0 0 0 16.75 28L16.25 28A0.25 0.25 0 0 1 16 27.75L16 25.25A0.25 0.25 0 0 0 15.75 25L14.25 25A0.25 0.25 0 0 0 14 25.25ZM22 25.25L22 25.75A0.25 0.25 0 0 0 22.25 26L22.75 26A0.25 0.25 0 0 0 23 25.75L23 25.25A0.25 0.25 0 0 0 22.75 25L22.25 25A0.25 0.25 0 0 0 22 25.25ZM14 26.25L14 26.75A0.25 0.25 0 0 0 14.25 27L14.75 27A0.25 0.25 0 0 0 15 26.75L15 26.25A0.25 0.25 0 0 0 14.75 26L14.25 26A0.25 0.25 0 0 0 14 26.25ZM18 26.25L18 26.75A0.25 0.25 0 0 0 18.25 27L18.75 27A0.25 0.25 0 0 0 19 26.75L19 26.25A0.25 0.25 0 0 0 18.75 26L18.25 26A0.25 0.25 0 0 0 18 26.25ZM26 26.25L26 26.75A0.25 0.25 0 0 1 25.75 27L25.25 27A0.25 0.25 0 0 0 25 27.25L25 27.75A0.25 0.25 0 0 1 24.75 28L24.25 28A0.25 0.25 0 0 0 24 28.25L24 28.75A0.25 0.25 0 0 0 24.25 29L26.75 29A0.25 0.25 0 0 0 27 28.75L27 27.25A0.25 0.25 0 0 1 27.25 27L27.75 27A0.25 0.25 0 0 1 28 27.25L28 27.75A0.25 0.25 0 0 0 28.25 28L28.75 28A0.25 0.25 0 0 0 29 27.75L29 27.25A0.25 0.25 0 0 0 28.75 27L28.25 27A0.25 0.25 0 0 1 28 26.75L28 26.25A0.25 0.25 0 0 0 27.75 26L26.25 26A0.25 0.25 0 0 0 26 26.25ZM20 28.25L20 28.75A0.25 0.25 0 0 0 20.25 29L22.75 29A0.25 0.25 0 0 0 23 28.75L23 28.25A0.25 0.25 0 0 0 22.75 28L20.25 28A0.25 0.25 0 0 0 20 28.25Z" fill="#000000"/></g></g></svg>
